<svg xmlns="http://www.w3.org/2000/svg" version="1.1" xmlns:xlink="http://www.w3.org/1999/xlink" xmlns:svgjs="http://svgjs.dev/svgjs" viewBox="0 0 11.00412799773843 7.954001309223246"><g transform="matrix(1,0,0,1,0.7775766941817146,6.058748833791531)"><rect width="11.00412799773843" height="7.954001309223246" x="-0.7775766941817149" y="-6.0587488337915305" fill="#0e1425"></rect><g><path d=" M 1.029052734375 0.9719238281250002 Q 1.029052734375 0.9799804687500002 1.0272216796875 0.9887695312500002 Q 1.025390625 0.9975585937500002 1.018798828125 1.0034179687500002 Q 0.98583984375 1.0283203125000002 0.9473876953125 1.0491943359375002 Q 0.908935546875 1.0700683593750002 0.8642578125 1.0854492187500002 Q 0.819580078125 1.1008300781250002 0.7679443359375 1.1092529296875002 Q 0.71630859375 1.1176757812500002 0.656982421875 1.1176757812500002 Q 0.523681640625 1.1176757812500002 0.413818359375 1.0784912109375002 Q 0.303955078125 1.0393066406250002 0.2252197265625 0.9675292968750002 Q 0.146484375 0.8957519531250002 0.103271484375 0.7950439453125002 Q 0.06005859375 0.6943359375000002 0.06005859375 0.5712890625000002 Q 0.06005859375 0.5017089843750002 0.0780029296875 0.4343261718750002 Q 0.095947265625 0.3669433593750002 0.13037109375 0.3061523437500002 Q 0.164794921875 0.24536132812500022 0.21533203125 0.19445800781250022 Q 0.265869140625 0.14355468750000022 0.3306884765625 0.10620117187500022 Q 0.3955078125 0.06884765625000022 0.4735107421875 0.04797363281250022 Q 0.551513671875 0.027099609375000222 0.642333984375 0.027099609375000222 Q 0.677490234375 0.027099609375000222 0.714111328125 0.030395507812500222 Q 0.750732421875 0.03369140625000022 0.78662109375 0.03991699218750022 Q 0.822509765625 0.04614257812500022 0.8558349609375 0.05493164062500022 Q 0.88916015625 0.06372070312500022 0.919189453125 0.07470703125000022 L 0.968994140625 0.21020507812500022 L 0.963134765625 0.21313476562500022 Q 0.9345703125 0.18750000000000022 0.897216796875 0.16552734375000022 Q 0.85986328125 0.14355468750000022 0.8173828125 0.12744140625000022 Q 0.77490234375 0.11132812500000022 0.7283935546875 0.10217285156250022 Q 0.681884765625 0.09301757812500022 0.63427734375 0.09301757812500022 Q 0.5419921875 0.09301757812500022 0.465087890625 0.12194824218750022 Q 0.38818359375 0.15087890625000022 0.3328857421875 0.20581054687500022 Q 0.277587890625 0.2607421875000002 0.246826171875 0.3405761718750002 Q 0.216064453125 0.4204101562500002 0.216064453125 0.5222167968750002 Q 0.216064453125 0.6342773437500002 0.245361328125 0.7302246093750002 Q 0.274658203125 0.8261718750000002 0.33251953125 0.8964843750000002 Q 0.390380859375 0.9667968750000002 0.4771728515625 1.0067138671875002 Q 0.56396484375 1.0466308593750002 0.6796875 1.0466308593750002 Q 0.73095703125 1.0466308593750002 0.771240234375 1.0385742187500002 Q 0.8115234375 1.0305175781250002 0.83935546875 1.0184326171875002 Q 0.8671875 1.0063476562500002 0.8814697265625 0.9920654296875002 Q 0.895751953125 0.9777832031250002 0.895751953125 0.9660644531250002 L 0.895751953125 0.9375000000000002 Q 0.895751953125 0.8862304687500002 0.894287109375 0.8488769531250002 Q 0.892822265625 0.8115234375000002 0.889892578125 0.7840576171875002 Q 0.886962890625 0.7565917968750002 0.88330078125 0.7368164062500002 Q 0.879638671875 0.7170410156250002 0.87451171875 0.7001953125000002 L 0.87451171875 0.6972656250000002 L 1.05029296875 0.6972656250000002 L 1.05029296875 0.7001953125000002 Q 1.0458984375 0.7155761718750002 1.0418701171875 0.7364501953125002 Q 1.037841796875 0.7573242187500002 1.034912109375 0.7858886718750002 Q 1.031982421875 0.8144531250000002 1.030517578125 0.8529052734375002 Q 1.029052734375 0.8913574218750002 1.029052734375 0.9418945312500002 L 1.029052734375 0.9719238281250002 Z M 1.1718750000000002 0.7185058593750002 Q 1.1718750000000002 0.6357421875000002 1.2026367187500002 0.5650634765625002 Q 1.2333984375000002 0.4943847656250002 1.2872314453125002 0.4423828125000002 Q 1.3410644531250002 0.3903808593750002 1.4143066406250002 0.3610839843750002 Q 1.4875488281250002 0.3317871093750002 1.5717773437500002 0.3317871093750002 Q 1.6545410156250002 0.3317871093750002 1.7274169921875002 0.3592529296875002 Q 1.8002929687500002 0.3867187500000002 1.8544921875000002 0.4372558593750002 Q 1.9086914062500002 0.4877929687500002 1.9398193359375002 0.5603027343750002 Q 1.9709472656250002 0.6328125000000002 1.9709472656250002 0.7229003906250002 Q 1.9709472656250002 0.7983398437500002 1.9445800781250002 0.8679199218750002 Q 1.9182128906250002 0.9375000000000002 1.8669433593750002 0.9909667968750002 Q 1.8156738281250002 1.0444335937500002 1.7413330078125002 1.0762939453125002 Q 1.6669921875000002 1.1081542968750002 1.5703125000000002 1.1081542968750002 Q 1.4882812500000002 1.1081542968750002 1.4157714843750002 1.0810546875000002 Q 1.3432617187500002 1.0539550781250002 1.2890625000000002 1.0034179687500002 Q 1.2348632812500002 0.9528808593750002 1.2033691406250002 0.8807373046875002 Q 1.1718750000000002 0.8085937500000002 1.1718750000000002 0.7185058593750002 Z M 1.5871582031250002 1.0546875000000002 Q 1.6391601562500002 1.0546875000000002 1.6827392578125002 1.0341796875000002 Q 1.7263183593750002 1.0136718750000002 1.7578125000000002 0.9748535156250002 Q 1.7893066406250002 0.9360351562500002 1.8068847656250002 0.8803710937500002 Q 1.8244628906250002 0.8247070312500002 1.8244628906250002 0.7543945312500002 Q 1.8244628906250002 0.6752929687500002 1.8076171875000002 0.6075439453125002 Q 1.7907714843750002 0.5397949218750002 1.7574462890625002 0.4903564453125002 Q 1.7241210937500002 0.4409179687500002 1.6735839843750002 0.4130859375000002 Q 1.6230468750000002 0.3852539062500002 1.5556640625000002 0.3852539062500002 Q 1.5036621093750002 0.3852539062500002 1.4604492187500002 0.4053955078125002 Q 1.4172363281250002 0.4255371093750002 1.3853759765625002 0.4636230468750002 Q 1.3535156250000002 0.5017089843750002 1.3359375000000002 0.5570068359375002 Q 1.3183593750000002 0.6123046875000002 1.3183593750000002 0.6826171875000002 Q 1.3183593750000002 0.7617187500000002 1.3355712890625002 0.8298339843750002 Q 1.3527832031250002 0.8979492187500002 1.3864746093750002 0.9481201171875002 Q 1.4201660156250002 0.9982910156250002 1.4703369140625002 1.0264892578125002 Q 1.5205078125000002 1.0546875000000002 1.5871582031250002 1.0546875000000002 Z M 2.211181640625 0.3449707031250002 L 2.211181640625 0.3479003906250002 Q 2.209716796875 0.3515625000000002 2.208984375 0.3588867187500002 Q 2.208251953125 0.3662109375000002 2.208251953125 0.3720703125000002 Q 2.208251953125 0.3947753906250002 2.21484375 0.4222412109375002 Q 2.221435546875 0.4497070312500002 2.23828125 0.4907226562500002 L 2.413330078125 0.9074707031250002 L 2.590576171875 0.4965820312500002 Q 2.6015625 0.4694824218750002 2.614013671875 0.4372558593750002 Q 2.62646484375 0.4050292968750002 2.62646484375 0.3720703125000002 Q 2.62646484375 0.3625488281250002 2.625 0.3563232421875002 Q 2.62353515625 0.3500976562500002 2.6220703125 0.3479003906250002 L 2.6220703125 0.3449707031250002 L 2.75390625 0.3449707031250002 L 2.75390625 0.3479003906250002 Q 2.74072265625 0.3618164062500002 2.7205810546875 0.3973388671875002 Q 2.700439453125 0.4328613281250002 2.677734375 0.4863281250000002 L 2.407470703125 1.1052246093750002 L 2.3642578125 1.1052246093750002 L 2.11376953125 0.5222167968750002 Q 2.1005859375 0.4899902343750002 2.0855712890625 0.4603271484375002 Q 2.070556640625 0.4306640625000002 2.0570068359375 0.4072265625000002 Q 2.04345703125 0.3837890625000002 2.033203125 0.3680419921875002 Q 2.02294921875 0.3522949218750002 2.019287109375 0.3479003906250002 L 2.019287109375 0.3449707031250002 L 2.211181640625 0.3449707031250002 Z M 2.8681640625 0.6313476562500002 Q 2.8681640625 0.5690917968750002 2.8663330078125 0.5225830078125002 Q 2.864501953125 0.4760742187500002 2.8619384765625 0.4423828125000002 Q 2.859375 0.4086914062500002 2.8553466796875 0.3859863281250002 Q 2.851318359375 0.3632812500000002 2.846923828125 0.3479003906250002 L 2.846923828125 0.3449707031250002 L 3.01611328125 0.3449707031250002 L 3.01611328125 0.3479003906250002 Q 3.01171875 0.3632812500000002 3.008056640625 0.3859863281250002 Q 3.00439453125 0.4086914062500002 3.00146484375 0.4423828125000002 Q 2.99853515625 0.4760742187500002 2.9970703125 0.5225830078125002 Q 2.99560546875 0.5690917968750002 2.99560546875 0.6313476562500002 L 2.99560546875 0.8085937500000002 Q 2.99560546875 0.8708496093750002 2.9970703125 0.9173583984375002 Q 2.99853515625 0.9638671875000002 3.00146484375 0.9975585937500002 Q 3.00439453125 1.0312500000000002 3.008056640625 1.0539550781250002 Q 3.01171875 1.0766601562500002 3.01611328125 1.0920410156250002 L 3.01611328125 1.0949707031250002 L 2.846923828125 1.0949707031250002 L 2.846923828125 1.0920410156250002 Q 2.851318359375 1.0766601562500002 2.8553466796875 1.0539550781250002 Q 2.859375 1.0312500000000002 2.8619384765625 0.9975585937500002 Q 2.864501953125 0.9638671875000002 2.8663330078125 0.9173583984375002 Q 2.8681640625 0.8708496093750002 2.8681640625 0.8085937500000002 L 2.8681640625 0.6313476562500002 Z M 2.852783203125 0.12304687500000022 Q 2.852783203125 0.10693359375000022 2.8590087890625 0.09265136718750022 Q 2.865234375 0.07836914062500022 2.87548828125 0.06774902343750022 Q 2.8857421875 0.05712890625000022 2.9000244140625 0.05090332031250022 Q 2.914306640625 0.04467773437500022 2.93115234375 0.04467773437500022 Q 2.947998046875 0.04467773437500022 2.9622802734375 0.05090332031250022 Q 2.9765625 0.05712890625000022 2.9871826171875 0.06774902343750022 Q 2.997802734375 0.07836914062500022 3.0040283203125 0.09265136718750022 Q 3.01025390625 0.10693359375000022 3.01025390625 0.12304687500000022 Q 3.01025390625 0.15673828125000022 2.987548828125 0.17944335937500022 Q 2.96484375 0.20214843750000022 2.93115234375 0.20214843750000022 Q 2.914306640625 0.20214843750000022 2.9000244140625 0.19592285156250022 Q 2.8857421875 0.18969726562500022 2.87548828125 0.17907714843750022 Q 2.865234375 0.16845703125000022 2.8590087890625 0.15417480468750022 Q 2.852783203125 0.13989257812500022 2.852783203125 0.12304687500000022 Z M 3.73681640625 0.6013183593750002 Q 3.73681640625 0.5046386718750002 3.697998046875 0.4592285156250002 Q 3.6591796875 0.4138183593750002 3.593994140625 0.4138183593750002 Q 3.570556640625 0.4138183593750002 3.541259765625 0.4237060546875002 Q 3.511962890625 0.4335937500000002 3.481201171875 0.4500732421875002 Q 3.450439453125 0.4665527343750002 3.419677734375 0.4885253906250002 Q 3.388916015625 0.5104980468750002 3.36181640625 0.5354003906250002 L 3.3603515625 0.6313476562500002 L 3.3603515625 0.8085937500000002 Q 3.3603515625 0.8708496093750002 3.36181640625 0.9173583984375002 Q 3.36328125 0.9638671875000002 3.3662109375 0.9975585937500002 Q 3.369140625 1.0312500000000002 3.372802734375 1.0539550781250002 Q 3.37646484375 1.0766601562500002 3.380859375 1.0920410156250002 L 3.380859375 1.0949707031250002 L 3.211669921875 1.0949707031250002 L 3.211669921875 1.0920410156250002 Q 3.216064453125 1.0766601562500002 3.2200927734375 1.0539550781250002 Q 3.22412109375 1.0312500000000002 3.2266845703125 0.9975585937500002 Q 3.229248046875 0.9638671875000002 3.2310791015625 0.9173583984375002 Q 3.23291015625 0.8708496093750002 3.23291015625 0.8085937500000002 L 3.23291015625 0.6313476562500002 Q 3.23291015625 0.5690917968750002 3.2310791015625 0.5225830078125002 Q 3.229248046875 0.4760742187500002 3.2266845703125 0.4423828125000002 Q 3.22412109375 0.4086914062500002 3.2200927734375 0.3859863281250002 Q 3.216064453125 0.3632812500000002 3.211669921875 0.3479003906250002 L 3.211669921875 0.3449707031250002 L 3.380859375 0.3449707031250002 L 3.380859375 0.3479003906250002 Q 3.375 0.3662109375000002 3.3717041015625 0.3944091796875002 Q 3.368408203125 0.4226074218750002 3.36474609375 0.4680175781250002 Q 3.394775390625 0.4431152343750002 3.4295654296875 0.4182128906250002 Q 3.46435546875 0.3933105468750002 3.501708984375 0.3739013671875002 Q 3.5390625 0.3544921875000002 3.577880859375 0.3424072265625002 Q 3.61669921875 0.3303222656250002 3.654052734375 0.3303222656250002 Q 3.711181640625 0.3303222656250002 3.7510986328125 0.3500976562500002 Q 3.791015625 0.3698730468750002 3.8162841796875 0.4020996093750002 Q 3.841552734375 0.4343261718750002 3.8529052734375 0.4757080078125002 Q 3.8642578125 0.5170898437500002 3.8642578125 0.5595703125000002 L 3.8642578125 0.8085937500000002 Q 3.8642578125 0.8708496093750002 3.86572265625 0.9173583984375002 Q 3.8671875 0.9638671875000002 3.8701171875 0.9975585937500002 Q 3.873046875 1.0312500000000002 3.876708984375 1.0539550781250002 Q 3.88037109375 1.0766601562500002 3.884765625 1.0920410156250002 L 3.884765625 1.0949707031250002 L 3.715576171875 1.0949707031250002 L 3.715576171875 1.0920410156250002 Q 3.719970703125 1.0766601562500002 3.7239990234375 1.0539550781250002 Q 3.72802734375 1.0312500000000002 3.7305908203125 0.9975585937500002 Q 3.733154296875 0.9638671875000002 3.7349853515625 0.9173583984375002 Q 3.73681640625 0.8708496093750002 3.73681640625 0.8085937500000002 L 3.73681640625 0.6013183593750002 Z M 4.426025390625 0.3317871093750002 Q 4.4560546875 0.3317871093750002 4.486083984375 0.3369140625000002 Q 4.51611328125 0.3420410156250002 4.544677734375 0.3515625000000002 Q 4.5732421875 0.3610839843750002 4.598876953125 0.3750000000000002 Q 4.62451171875 0.3889160156250002 4.64501953125 0.4064941406250002 L 4.64501953125 0.2863769531250002 Q 4.64501953125 0.22412109375000022 4.6435546875 0.17761230468750022 Q 4.64208984375 0.13110351562500022 4.63916015625 0.09741210937500022 Q 4.63623046875 0.06372070312500022 4.632568359375 0.04101562500000022 Q 4.62890625 0.018310546875000222 4.62451171875 0.002929687500000222 L 4.62451171875 2.220446049250313e-16 L 4.793701171875 2.220446049250313e-16 L 4.793701171875 0.002929687500000222 Q 4.789306640625 0.018310546875000222 4.7852783203125 0.04101562500000022 Q 4.78125 0.06372070312500022 4.7786865234375 0.09741210937500022 Q 4.776123046875 0.13110351562500022 4.7742919921875 0.17761230468750022 Q 4.7724609375 0.22412109375000022 4.7724609375 0.2863769531250002 L 4.7724609375 0.8085937500000002 Q 4.7724609375 0.8708496093750002 4.7742919921875 0.9173583984375002 Q 4.776123046875 0.9638671875000002 4.7786865234375 0.9975585937500002 Q 4.78125 1.0312500000000002 4.7852783203125 1.0539550781250002 Q 4.789306640625 1.0766601562500002 4.793701171875 1.0920410156250002 L 4.793701171875 1.0949707031250002 L 4.6318359375 1.0949707031250002 L 4.6318359375 1.0920410156250002 Q 4.634033203125 1.0861816406250002 4.635498046875 1.0748291015625002 Q 4.636962890625 1.0634765625000002 4.63916015625 1.0466308593750002 Q 4.601806640625 1.0700683593750002 4.54541015625 1.0891113281250002 Q 4.489013671875 1.1081542968750002 4.414306640625 1.1081542968750002 Q 4.3271484375 1.1081542968750002 4.256103515625 1.0810546875000002 Q 4.18505859375 1.0539550781250002 4.1348876953125 1.0034179687500002 Q 4.084716796875 0.9528808593750002 4.0576171875 0.8807373046875002 Q 4.030517578125 0.8085937500000002 4.030517578125 0.7185058593750002 Q 4.030517578125 0.6357421875000002 4.059814453125 0.5650634765625002 Q 4.089111328125 0.4943847656250002 4.141845703125 0.4423828125000002 Q 4.194580078125 0.3903808593750002 4.26708984375 0.3610839843750002 Q 4.339599609375 0.3317871093750002 4.426025390625 0.3317871093750002 Z M 4.64501953125 0.5354003906250002 Q 4.61572265625 0.4584960937500002 4.5611572265625 0.4218750000000002 Q 4.506591796875 0.3852539062500002 4.4384765625 0.3852539062500002 Q 4.38134765625 0.3852539062500002 4.3330078125 0.4053955078125002 Q 4.28466796875 0.4255371093750002 4.250244140625 0.4636230468750002 Q 4.2158203125 0.5017089843750002 4.1964111328125 0.5570068359375002 Q 4.177001953125 0.6123046875000002 4.177001953125 0.6826171875000002 Q 4.177001953125 0.7617187500000002 4.194580078125 0.8298339843750002 Q 4.212158203125 0.8979492187500002 4.2462158203125 0.9481201171875002 Q 4.2802734375 0.9982910156250002 4.330810546875 1.0264892578125002 Q 4.38134765625 1.0546875000000002 4.447265625 1.0546875000000002 Q 4.481689453125 1.0546875000000002 4.51171875 1.0466308593750002 Q 4.541748046875 1.0385742187500002 4.566650390625 1.0261230468750002 Q 4.591552734375 1.0136718750000002 4.610595703125 0.9986572265625002 Q 4.629638671875 0.9836425781250002 4.64208984375 0.9689941406250002 Q 4.6435546875 0.9375000000000002 4.644287109375 0.8972167968750002 Q 4.64501953125 0.8569335937500002 4.64501953125 0.8085937500000002 L 4.64501953125 0.5354003906250002 Z M 5.60888671875 0.6298828125000002 Q 5.6806640625 0.6430664062500002 5.7403564453125 0.6324462890625002 Q 5.800048828125 0.6218261718750002 5.8428955078125 0.5870361328125002 Q 5.8857421875 0.5522460937500002 5.9095458984375 0.4929199218750002 Q 5.933349609375 0.4335937500000002 5.933349609375 0.3479003906250002 Q 5.933349609375 0.2885742187500002 5.9208984375 0.23986816406250022 Q 5.908447265625 0.19116210937500022 5.8839111328125 0.15710449218750022 Q 5.859375 0.12304687500000022 5.822021484375 0.10437011718750022 Q 5.78466796875 0.08569335937500022 5.73486328125 0.08569335937500022 Q 5.703369140625 0.08569335937500022 5.679931640625 0.08825683593750022 Q 5.656494140625 0.09082031250000022 5.640380859375 0.09375000000000022 Q 5.621337890625 0.09741210937500022 5.60888671875 0.10180664062500022 L 5.60888671875 0.6298828125000002 Z M 5.454345703125 0.04467773437500022 Q 5.468994140625 0.04614257812500022 5.485107421875 0.04760742187500022 Q 5.4990234375 0.04907226562500022 5.5162353515625 0.04943847656250022 Q 5.533447265625 0.04980468750000022 5.5517578125 0.04980468750000022 Q 5.580322265625 0.04980468750000022 5.6290283203125 0.04284667968750022 Q 5.677734375 0.03588867187500022 5.753173828125 0.03588867187500022 Q 5.823486328125 0.03588867187500022 5.8831787109375 0.05639648437500022 Q 5.94287109375 0.07690429687500022 5.98681640625 0.11645507812500022 Q 6.03076171875 0.15600585937500022 6.0552978515625 0.21276855468750022 Q 6.079833984375 0.2695312500000002 6.079833984375 0.3420410156250002 Q 6.079833984375 0.4394531250000002 6.041015625 0.5104980468750002 Q 6.002197265625 0.5815429687500002 5.93701171875 0.6254882812500002 Q 5.871826171875 0.6694335937500002 5.786865234375 0.6851806640625002 Q 5.701904296875 0.7009277343750002 5.60888671875 0.6870117187500002 L 5.60888671875 0.8085937500000002 Q 5.60888671875 0.8708496093750002 5.6107177734375 0.9173583984375002 Q 5.612548828125 0.9638671875000002 5.6151123046875 0.9975585937500002 Q 5.61767578125 1.0312500000000002 5.6217041015625 1.0539550781250002 Q 5.625732421875 1.0766601562500002 5.630126953125 1.0920410156250002 L 5.630126953125 1.0949707031250002 L 5.454345703125 1.0949707031250002 L 5.454345703125 1.0920410156250002 Q 5.458740234375 1.0766601562500002 5.4627685546875 1.0539550781250002 Q 5.466796875 1.0312500000000002 5.4697265625 0.9975585937500002 Q 5.47265625 0.9638671875000002 5.47412109375 0.9173583984375002 Q 5.4755859375 0.8708496093750002 5.4755859375 0.8085937500000002 L 5.4755859375 0.3317871093750002 Q 5.4755859375 0.2695312500000002 5.47412109375 0.22302246093750022 Q 5.47265625 0.17651367187500022 5.4697265625 0.14245605468750022 Q 5.466796875 0.10839843750000022 5.4627685546875 0.08569335937500022 Q 5.458740234375 0.06298828125000022 5.454345703125 0.04760742187500022 L 5.454345703125 0.04467773437500022 Z M 6.134765625 0.8789062500000002 Q 6.134765625 0.8210449218750002 6.1585693359375 0.7785644531250002 Q 6.182373046875 0.7360839843750002 6.221923828125 0.7060546875000002 Q 6.261474609375 0.6760253906250002 6.31201171875 0.6573486328125002 Q 6.362548828125 0.6386718750000002 6.416748046875 0.6280517578125002 Q 6.470947265625 0.6174316406250002 6.523681640625 0.6134033203125002 Q 6.576416015625 0.6093750000000002 6.620361328125 0.6086425781250002 L 6.620361328125 0.5712890625000002 Q 6.620361328125 0.5229492187500002 6.60791015625 0.4877929687500002 Q 6.595458984375 0.4526367187500002 6.57275390625 0.4295654296875002 Q 6.550048828125 0.4064941406250002 6.5181884765625 0.3951416015625002 Q 6.486328125 0.3837890625000002 6.4482421875 0.3837890625000002 Q 6.421875 0.3837890625000002 6.396240234375 0.3881835937500002 Q 6.37060546875 0.3925781250000002 6.3431396484375 0.4028320312500002 Q 6.315673828125 0.4130859375000002 6.2852783203125 0.4306640625000002 Q 6.2548828125 0.4482421875000002 6.2197265625 0.4753417968750002 L 6.21240234375 0.4709472656250002 L 6.26220703125 0.3676757812500002 Q 6.286376953125 0.3566894531250002 6.309814453125 0.3497314453125002 Q 6.333251953125 0.3427734375000002 6.357421875 0.3383789062500002 Q 6.381591796875 0.3339843750000002 6.4068603515625 0.3321533203125002 Q 6.43212890625 0.3303222656250002 6.4599609375 0.3303222656250002 Q 6.536865234375 0.3303222656250002 6.5914306640625 0.3489990234375002 Q 6.64599609375 0.3676757812500002 6.6807861328125 0.4002685546875002 Q 6.715576171875 0.4328613281250002 6.731689453125 0.4764404296875002 Q 6.747802734375 0.5200195312500002 6.747802734375 0.5698242187500002 L 6.747802734375 0.8085937500000002 Q 6.747802734375 0.8708496093750002 6.7496337890625 0.9173583984375002 Q 6.75146484375 0.9638671875000002 6.7540283203125 0.9975585937500002 Q 6.756591796875 1.0312500000000002 6.7606201171875 1.0539550781250002 Q 6.7646484375 1.0766601562500002 6.76904296875 1.0920410156250002 L 6.76904296875 1.0949707031250002 L 6.607177734375 1.0949707031250002 L 6.607177734375 1.0920410156250002 Q 6.61083984375 1.0803222656250002 6.6126708984375 1.0656738281250002 Q 6.614501953125 1.0510253906250002 6.615966796875 1.0305175781250002 Q 6.6005859375 1.0437011718750002 6.5797119140625 1.0576171875000002 Q 6.558837890625 1.0715332031250002 6.5321044921875 1.0828857421875002 Q 6.50537109375 1.0942382812500002 6.4727783203125 1.1011962890625002 Q 6.440185546875 1.1081542968750002 6.4013671875 1.1081542968750002 Q 6.27392578125 1.1081542968750002 6.204345703125 1.0484619140625002 Q 6.134765625 0.9887695312500002 6.134765625 0.8789062500000002 Z M 6.620361328125 0.6657714843750002 Q 6.5537109375 0.6665039062500002 6.4921875 0.6734619140625002 Q 6.4306640625 0.6804199218750002 6.3834228515625 0.7023925781250002 Q 6.336181640625 0.7243652343750002 6.3079833984375 0.7650146484375002 Q 6.27978515625 0.8056640625000002 6.27978515625 0.8730468750000002 Q 6.27978515625 0.9594726562500002 6.322998046875 1.0048828125000002 Q 6.3662109375 1.0502929687500002 6.4423828125 1.0502929687500002 Q 6.4775390625 1.0502929687500002 6.5064697265625 1.0404052734375002 Q 6.535400390625 1.0305175781250002 6.5577392578125 1.0155029296875002 Q 6.580078125 1.0004882812500002 6.595458984375 0.9825439453125002 Q 6.61083984375 0.9645996093750002 6.618896484375 0.9477539062500002 Q 6.620361328125 0.9199218750000002 6.620361328125 0.8858642578125002 Q 6.620361328125 0.8518066406250002 6.620361328125 0.8085937500000002 L 6.620361328125 0.6657714843750002 Z M 7.480224609375 0.6013183593750002 Q 7.480224609375 0.5046386718750002 7.44140625 0.4592285156250002 Q 7.402587890625 0.4138183593750002 7.33740234375 0.4138183593750002 Q 7.31396484375 0.4138183593750002 7.28466796875 0.4237060546875002 Q 7.25537109375 0.4335937500000002 7.224609375 0.4500732421875002 Q 7.19384765625 0.4665527343750002 7.1630859375 0.4885253906250002 Q 7.13232421875 0.5104980468750002 7.105224609375 0.5354003906250002 L 7.103759765625 0.6313476562500002 L 7.103759765625 0.8085937500000002 Q 7.103759765625 0.8708496093750002 7.105224609375 0.9173583984375002 Q 7.106689453125 0.9638671875000002 7.109619140625 0.9975585937500002 Q 7.112548828125 1.0312500000000002 7.1162109375 1.0539550781250002 Q 7.119873046875 1.0766601562500002 7.124267578125 1.0920410156250002 L 7.124267578125 1.0949707031250002 L 6.955078125 1.0949707031250002 L 6.955078125 1.0920410156250002 Q 6.95947265625 1.0766601562500002 6.9635009765625 1.0539550781250002 Q 6.967529296875 1.0312500000000002 6.9700927734375 0.9975585937500002 Q 6.97265625 0.9638671875000002 6.9744873046875 0.9173583984375002 Q 6.976318359375 0.8708496093750002 6.976318359375 0.8085937500000002 L 6.976318359375 0.6313476562500002 Q 6.976318359375 0.5690917968750002 6.9744873046875 0.5225830078125002 Q 6.97265625 0.4760742187500002 6.9700927734375 0.4423828125000002 Q 6.967529296875 0.4086914062500002 6.9635009765625 0.3859863281250002 Q 6.95947265625 0.3632812500000002 6.955078125 0.3479003906250002 L 6.955078125 0.3449707031250002 L 7.124267578125 0.3449707031250002 L 7.124267578125 0.3479003906250002 Q 7.118408203125 0.3662109375000002 7.1151123046875 0.3944091796875002 Q 7.11181640625 0.4226074218750002 7.108154296875 0.4680175781250002 Q 7.13818359375 0.4431152343750002 7.1729736328125 0.4182128906250002 Q 7.207763671875 0.3933105468750002 7.2451171875 0.3739013671875002 Q 7.282470703125 0.3544921875000002 7.3212890625 0.3424072265625002 Q 7.360107421875 0.3303222656250002 7.3974609375 0.3303222656250002 Q 7.45458984375 0.3303222656250002 7.4945068359375 0.3500976562500002 Q 7.534423828125 0.3698730468750002 7.5596923828125 0.4020996093750002 Q 7.5849609375 0.4343261718750002 7.5963134765625 0.4757080078125002 Q 7.607666015625 0.5170898437500002 7.607666015625 0.5595703125000002 L 7.607666015625 0.8085937500000002 Q 7.607666015625 0.8708496093750002 7.609130859375 0.9173583984375002 Q 7.610595703125 0.9638671875000002 7.613525390625 0.9975585937500002 Q 7.616455078125 1.0312500000000002 7.6201171875 1.0539550781250002 Q 7.623779296875 1.0766601562500002 7.628173828125 1.0920410156250002 L 7.628173828125 1.0949707031250002 L 7.458984375 1.0949707031250002 L 7.458984375 1.0920410156250002 Q 7.46337890625 1.0766601562500002 7.4674072265625 1.0539550781250002 Q 7.471435546875 1.0312500000000002 7.4739990234375 0.9975585937500002 Q 7.4765625 0.9638671875000002 7.4783935546875 0.9173583984375002 Q 7.480224609375 0.8708496093750002 7.480224609375 0.8085937500000002 L 7.480224609375 0.6013183593750002 Z M 8.16943359375 0.3317871093750002 Q 8.199462890625 0.3317871093750002 8.2294921875 0.3369140625000002 Q 8.259521484375 0.3420410156250002 8.2880859375 0.3515625000000002 Q 8.316650390625 0.3610839843750002 8.34228515625 0.3750000000000002 Q 8.367919921875 0.3889160156250002 8.388427734375 0.4064941406250002 L 8.388427734375 0.2863769531250002 Q 8.388427734375 0.22412109375000022 8.386962890625 0.17761230468750022 Q 8.385498046875 0.13110351562500022 8.382568359375 0.09741210937500022 Q 8.379638671875 0.06372070312500022 8.3759765625 0.04101562500000022 Q 8.372314453125 0.018310546875000222 8.367919921875 0.002929687500000222 L 8.367919921875 2.220446049250313e-16 L 8.537109375 2.220446049250313e-16 L 8.537109375 0.002929687500000222 Q 8.53271484375 0.018310546875000222 8.5286865234375 0.04101562500000022 Q 8.524658203125 0.06372070312500022 8.5220947265625 0.09741210937500022 Q 8.51953125 0.13110351562500022 8.5177001953125 0.17761230468750022 Q 8.515869140625 0.22412109375000022 8.515869140625 0.2863769531250002 L 8.515869140625 0.8085937500000002 Q 8.515869140625 0.8708496093750002 8.5177001953125 0.9173583984375002 Q 8.51953125 0.9638671875000002 8.5220947265625 0.9975585937500002 Q 8.524658203125 1.0312500000000002 8.5286865234375 1.0539550781250002 Q 8.53271484375 1.0766601562500002 8.537109375 1.0920410156250002 L 8.537109375 1.0949707031250002 L 8.375244140625 1.0949707031250002 L 8.375244140625 1.0920410156250002 Q 8.37744140625 1.0861816406250002 8.37890625 1.0748291015625002 Q 8.38037109375 1.0634765625000002 8.382568359375 1.0466308593750002 Q 8.34521484375 1.0700683593750002 8.288818359375 1.0891113281250002 Q 8.232421875 1.1081542968750002 8.15771484375 1.1081542968750002 Q 8.070556640625 1.1081542968750002 7.99951171875 1.0810546875000002 Q 7.928466796875 1.0539550781250002 7.8782958984375 1.0034179687500002 Q 7.828125 0.9528808593750002 7.801025390625 0.8807373046875002 Q 7.77392578125 0.8085937500000002 7.77392578125 0.7185058593750002 Q 7.77392578125 0.6357421875000002 7.80322265625 0.5650634765625002 Q 7.83251953125 0.4943847656250002 7.88525390625 0.4423828125000002 Q 7.93798828125 0.3903808593750002 8.010498046875 0.3610839843750002 Q 8.0830078125 0.3317871093750002 8.16943359375 0.3317871093750002 Z M 8.388427734375 0.5354003906250002 Q 8.359130859375 0.4584960937500002 8.3045654296875 0.4218750000000002 Q 8.25 0.3852539062500002 8.181884765625 0.3852539062500002 Q 8.124755859375 0.3852539062500002 8.076416015625 0.4053955078125002 Q 8.028076171875 0.4255371093750002 7.99365234375 0.4636230468750002 Q 7.959228515625 0.5017089843750002 7.9398193359375 0.5570068359375002 Q 7.92041015625 0.6123046875000002 7.92041015625 0.6826171875000002 Q 7.92041015625 0.7617187500000002 7.93798828125 0.8298339843750002 Q 7.95556640625 0.8979492187500002 7.9896240234375 0.9481201171875002 Q 8.023681640625 0.9982910156250002 8.07421875 1.0264892578125002 Q 8.124755859375 1.0546875000000002 8.190673828125 1.0546875000000002 Q 8.22509765625 1.0546875000000002 8.255126953125 1.0466308593750002 Q 8.28515625 1.0385742187500002 8.31005859375 1.0261230468750002 Q 8.3349609375 1.0136718750000002 8.35400390625 0.9986572265625002 Q 8.373046875 0.9836425781250002 8.385498046875 0.9689941406250002 Q 8.386962890625 0.9375000000000002 8.3876953125 0.8972167968750002 Q 8.388427734375 0.8569335937500002 8.388427734375 0.8085937500000002 L 8.388427734375 0.5354003906250002 Z M 9.076904296875 1.1081542968750002 Q 8.99560546875 1.1081542968750002 8.924560546875 1.0825195312500002 Q 8.853515625 1.0568847656250002 8.80078125 1.0074462890625002 Q 8.748046875 0.9580078125000002 8.7176513671875 0.8851318359375002 Q 8.687255859375 0.8122558593750002 8.687255859375 0.7185058593750002 Q 8.687255859375 0.6357421875000002 8.715087890625 0.5650634765625002 Q 8.742919921875 0.4943847656250002 8.7919921875 0.4423828125000002 Q 8.841064453125 0.3903808593750002 8.9066162109375 0.3610839843750002 Q 8.97216796875 0.3317871093750002 9.04833984375 0.3317871093750002 Q 9.123779296875 0.3317871093750002 9.188232421875 0.3577880859375002 Q 9.252685546875 0.3837890625000002 9.2999267578125 0.4332275390625002 Q 9.34716796875 0.4826660156250002 9.3746337890625 0.5555419921875002 Q 9.402099609375 0.6284179687500002 9.404296875 0.7214355468750002 Q 9.321533203125 0.7199707031250002 9.23876953125 0.7192382812500002 Q 9.156005859375 0.7185058593750002 9.066650390625 0.7185058593750002 Q 9.0029296875 0.7185058593750002 8.9425048828125 0.7192382812500002 Q 8.882080078125 0.7199707031250002 8.833740234375 0.7214355468750002 Q 8.838134765625 0.7976074218750002 8.8575439453125 0.8591308593750002 Q 8.876953125 0.9206542968750002 8.9110107421875 0.9642333984375002 Q 8.945068359375 1.0078125000000002 8.9937744140625 1.0312500000000002 Q 9.04248046875 1.0546875000000002 9.10400390625 1.0546875000000002 Q 9.146484375 1.0546875000000002 9.1842041015625 1.0447998046875002 Q 9.221923828125 1.0349121093750002 9.252685546875 1.0173339843750002 Q 9.283447265625 0.9997558593750002 9.3076171875 0.9759521484375002 Q 9.331787109375 0.9521484375000002 9.3486328125 0.9243164062500002 L 9.357421875 0.9287109375000002 L 9.30322265625 1.0590820312500002 Q 9.263671875 1.0795898437500002 9.208740234375 1.0938720703125002 Q 9.15380859375 1.1081542968750002 9.076904296875 1.1081542968750002 Z M 8.9794921875 0.6613769531250002 Q 9.052734375 0.6613769531250002 9.1263427734375 0.6610107421875002 Q 9.199951171875 0.6606445312500002 9.260009765625 0.6584472656250002 Q 9.25341796875 0.5947265625000002 9.235107421875 0.5441894531250002 Q 9.216796875 0.4936523437500002 9.188232421875 0.4584960937500002 Q 9.15966796875 0.4233398437500002 9.120849609375 0.4042968750000002 Q 9.08203125 0.3852539062500002 9.03515625 0.3852539062500002 Q 8.99267578125 0.3852539062500002 8.9571533203125 0.4039306640625002 Q 8.921630859375 0.4226074218750002 8.895263671875 0.4577636718750002 Q 8.868896484375 0.4929199218750002 8.852783203125 0.5438232421875002 Q 8.836669921875 0.5947265625000002 8.833740234375 0.6599121093750002 Q 8.86669921875 0.6613769531250002 8.9033203125 0.6613769531250002 Q 8.93994140625 0.6613769531250002 8.9794921875 0.6613769531250002 Z" fill="#ffffff" fill-rule="nonzero"></path></g><g></g><g clip-path="url(&quot;#SvgjsClipPath1014&quot;)"><g clip-path="url(&quot;#SvgjsClipPath1015&quot;)"><path d=" M 6.573984743061437 -2.259662344838666 C 6.562257536360882 -2.226619018836248 6.550764205577432 -2.1935422819885293 6.541475990583829 -2.1676488768804667 C 6.489856234594209 -2.145597718981988 6.435463378444626 -2.17286096874738 6.4018854789173965 -2.1260189636357625 L 6.278933568210726 -2.1276895059007987 C 6.272919616056595 -2.204534450092468 6.266905663902463 -2.281713502737145 6.261158998510739 -2.3574892998791914 C 6.265268532482727 -2.362734802591405 6.2682755085597925 -2.3693501499609497 6.272117755769377 -2.3701854210934674 C 6.297242711435523 -2.3751302261979745 6.3232029382341866 -2.3765334817006054 6.347793320375521 -2.3835497592137576 C 6.36603363263721 -2.390837057967495 6.383430808429225 -2.4000789575350487 6.3996803631275485 -2.4111137065868564 C 6.435463378444625 -2.4367398249325136 6.460354458193667 -2.4662081904877535 6.445854151333151 -2.5160905825217377 C 6.442464263502563 -2.5262036722903183 6.44259378506671 -2.537165906492203 6.446221670631458 -2.5471960794967137 C 6.449828628366818 -2.5571956683925583 6.4567340826384125 -2.5656684015346682 6.465800425977685 -2.5712184772679354 C 6.495569489140632 -2.5841818852446172 6.49640476027315 -2.6087054456953496 6.491226079251538 -2.6357014086983366 C 6.493397784196085 -2.6671076032810186 6.495302202378227 -2.6988144954714075 6.497507318168073 -2.7302206900540895 C 6.495836775903036 -2.753908979372305 6.4945003420910075 -2.77763067953582 6.493130497433678 -2.8013189688540345 C 6.493130497433678 -2.8313887296246882 6.501583441294762 -2.867472442549472 6.488486389936877 -2.890058173972763 C 6.469964969037111 -2.914673118362808 6.443193532044935 -2.9317892829971495 6.413078112093138 -2.93827002374171 C 6.367987812913194 -2.9470390459437192 6.322335875219234 -2.9526213322843837 6.276461165658473 -2.9549754463920728 C 6.259993139270084 -2.9663096179932245 6.242843238353066 -2.976619643007749 6.2251086964312545 -2.985847067449944 C 6.15544708397924 -3.0178212464027387 6.154611812846722 -3.0183558199275504 6.159823904713635 -3.119791146260555 L 6.205730406156836 -3.0727152652318317 C 6.23707475336944 -3.1104762915871973 6.25105946544365 -3.159695685860524 6.2442531107885735 -3.208296475462178 C 6.258452720041381 -3.2634243702083756 6.2169230393325785 -3.305187926834283 6.2090046689963065 -3.3637237278011547 L 6.276761863266178 -3.4932575750320694 C 6.310907747163519 -3.494627419689399 6.348862467425144 -3.4849716853974897 6.371548431384338 -3.523561211719828 C 6.406796873176603 -3.5709712012015578 6.404591757386756 -3.6266336694725676 6.405427028519274 -3.681460866611059 C 6.438837873819999 -3.706552411431904 6.429449426290495 -3.744941472682438 6.43519609168222 -3.7787532481267725 C 6.451406414001477 -3.7875784749412067 6.4648383076590195 -3.800744275959537 6.473986083076363 -3.8167747900789983 C 6.483143882169532 -3.8328614316629457 6.487687301457341 -3.851162278310782 6.487116545279549 -3.8696641581900475 C 6.479465461705682 -3.942165692492623 6.514446616735542 -3.9936852159463423 6.5488597873952905 -4.048245126322428 C 6.566631349449961 -4.076051402558223 6.560352882212854 -4.112810815575475 6.534359480534776 -4.133142084231572 L 6.501583441294763 -4.18823656813247 C 6.505158401741941 -4.200631991739039 6.514947779415054 -4.215800515505569 6.511138943050772 -4.224988497963268 C 6.504176668384013 -4.240974466178366 6.493651314561471 -4.255156837615689 6.480367554528802 -4.266451356981469 C 6.467147389121847 -4.277722048175043 6.451507144440116 -4.285793694918685 6.43466151815741 -4.290039413763782 C 6.415517103800094 -4.305742511055122 6.397241371420597 -4.3230827397662 6.377027810013658 -4.336814597184798 C 6.34541460442146 -4.353771621773432 6.320968761653965 -4.381550449411216 6.30816805784886 -4.415062796879098 C 6.31227759182085 -4.418103183801464 6.319360691024605 -4.420575586353717 6.320195962157123 -4.424451244408601 C 6.345588204585675 -4.554519665164328 6.345588204585675 -4.554519665164328 6.304058523876872 -4.660064525469321 C 6.294503022120865 -4.684020101549941 6.286317365022187 -4.708276375238269 6.276761863266178 -4.73226536216419 C 6.323537046687195 -4.778840080513402 6.3149838702902095 -4.832832006519375 6.297777284960335 -4.887959901265573 C 6.293133177463534 -4.90256044066199 6.279768839343244 -4.918530824715737 6.283043102182715 -4.9303916747974945 C 6.298879842855258 -4.9871901118087285 6.318826117499792 -5.043119866842144 6.337669834249402 -5.10412807036127 L 6.21007381604593 -5.169178986161783 C 6.130839569616595 -5.203965759179311 6.047755637453748 -5.229222915662941 5.962566274058152 -5.244420209779018 C 5.926985741534077 -5.274840629036901 5.878438123312114 -5.285211365710417 5.8335335895067475 -5.271984157152117 L 5.6765026165933365 -5.271984157152117 C 5.619938055499207 -5.273621288571852 5.55929737127839 -5.290159656995712 5.50821218881358 -5.274456559704371 C 5.417769030584515 -5.246892612331272 5.325421454173308 -5.2518708282810795 5.235011706789543 -5.237537575647068 C 5.174418832008652 -5.242413297853469 5.113436812234072 -5.238042149936873 5.054158801176714 -5.2245741676703865 C 4.991580287928454 -5.212446030826223 4.924123791266289 -5.2245741676703865 4.859072875465776 -5.213281301958741 C 4.851154505129504 -5.219061378195767 4.842701561268419 -5.230354243907412 4.835050477694554 -5.2299867246091045 C 4.7691865189302645 -5.232557741628173 4.706302696201016 -5.202435027578709 4.6670273366772035 -5.149499998279656 C 4.657376712857264 -5.151157762742221 4.647569493669583 -5.151718175267232 4.637792847039067 -5.151170540544692 C 4.615942154212393 -5.178734487917791 4.5946260349105295 -5.1561153456492 4.573042628846261 -5.151170540544692 C 4.491085825323581 -5.151170540544692 4.4091290218009 -5.14923271151725 4.325267800096078 -5.147595580097514 C 4.283842771570538 -5.152260894162196 4.242200939417148 -5.140918156299519 4.208864415068349 -5.115888687907125 C 4.19259479165688 -5.102655977133197 4.1701588756964325 -5.099976673546036 4.151230706924597 -5.109006053775175 C 4.09660397485791 -5.129653956171024 4.055074294149108 -5.099918303853379 4.006428103391251 -5.079804974982341 C 3.9577819126333935 -5.059691646111304 3.8955040969928403 -5.09908303272086 3.8482611617376143 -5.052241027609242 L 3.7534411827741545 -5.024677080236144 C 3.6960747613928078 -5.047262811659434 3.6389756267738673 -5.065739009110736 3.586386956270524 -5.012816230154385 L 3.586386956270524 -4.953745855662702 C 3.586386956270524 -4.9507054687403365 3.5782012991718464 -4.947965779425677 3.5738244784374515 -4.945192679265716 C 3.466442021640918 -5.029521652804749 3.466442021640918 -5.029521652804749 3.375464289887042 -4.990397552957599 C 3.30788031950247 -4.993086917680129 3.2403557139747283 -4.9837540646795615 3.176034954287009 -4.9628336055845 C 3.1066858511256368 -4.946464635224822 3.0363880652206974 -4.934413586212546 2.965546628892437 -4.926749892659716 L 2.70571048498869 -4.882113003337945 C 2.628998914996284 -4.873691481793228 2.5527674616834437 -4.861357955262509 2.47731394651292 -4.845160608435341 C 2.4382028913678977 -4.832632506135718 2.3973682308622384 -4.826319030187852 2.356299864833698 -4.826450535066936 C 2.232846791447514 -4.832698363138173 2.124127900838952 -4.786691629159073 2.0180150561638466 -4.731296447650469 C 1.9538328223411519 -4.731296447650469 1.8879800462534209 -4.69821971080275 1.8267713776624912 -4.741319701240687 C 1.77378177701554 -4.730294122291447 1.7147782242144578 -4.743257530268129 1.669139009533666 -4.701928314631131 C 1.6602676394462523 -4.701522789947562 1.6515116207584009 -4.69975355579828 1.6431787827350017 -4.696682811918917 L 1.5790967814482098 -4.696682811918917 C 1.55325059552743 -4.700124048356129 1.527062286972997 -4.700124048356129 1.5012161010522171 -4.696682811918917 C 1.4241706917887436 -4.6768367698102855 1.3490631115527116 -4.688129635521931 1.2717504155268315 -4.6933417273888445 C 1.2045806794420852 -4.699063695418904 1.1382480583871524 -4.712184556779601 1.0739582113465338 -4.732465827235995 C 1.044498701342641 -4.742559942542334 1.0144788188207299 -4.750937843610322 0.9840496266422825 -4.757557372056839 C 0.9713281525240235 -4.760837518533162 0.9578876733405106 -4.759923519076915 0.9457273870823483 -4.754951326123383 C 0.9335108771432948 -4.74997459751206 0.9231997200109012 -4.741231766209111 0.9162924323724085 -4.72999342468374 C 0.8889957717617154 -4.718967845734501 0.8854208113145376 -4.693241494852942 0.880776703817737 -4.668818166938111 C 0.856557028310459 -4.663632562388898 0.833321845677092 -4.654609190492445 0.8119503624982414 -4.642089490697531 C 0.7559322733765005 -4.595024696781178 0.7242793398276024 -4.525095797391901 0.7258840250035714 -4.451948370091099 C 0.729248166857716 -4.3958212237939085 0.7212947441841974 -4.33959052549213 0.7024964332930634 -4.286598096697807 C 0.6954977354771069 -4.256534953461016 0.6926536071614745 -4.225654240089308 0.6940434894319797 -4.194818504656713 C 0.6208850064802074 -4.156282903435208 0.5390104323613041 -4.137304667179644 0.4563587359626151 -4.139724020755815 C 0.43627791611846756 -4.140862578703051 0.4161365361430398 -4.139186941843007 0.39651991202901526 -4.134745804806007 C 0.33711542908432457 -4.118474723144554 0.27811187628324285 -4.099397130477839 0.20982010848855892 -4.078381708783683 C 0.19124367850135515 -4.060473495702493 0.16939298567468053 -4.023287224882786 0.1382540778544039 -4.012528932695952 C 0.06528479171761825 -3.9878049071734147 0.04042712281387839 -3.925527091532861 0 -3.870967181156776 C 0.012829764595478688 -3.837322459938945 0.024055808616522567 -3.808689365516223 0.03498115502986021 -3.7797555734857946 L 0.03498115502986021 -3.747614340306496 C 0.029970606238314046 -3.722019686678287 0.04214308904886721 -3.696132873234511 0.06505091580051325 -3.6836659824009064 C 0.06859321245305106 -3.6738610648638588 0.07346067032014347 -3.664587040059353 0.07951781181572781 -3.656102035027807 C 0.16180668954375177 -3.575045730255331 0.2157126376313685 -3.469577570953472 0.2332077001990669 -3.355404427321274 C 0.2332077001990669 -3.3468512509242885 0.24577017803214019 -3.339701330029933 0.25231870371108234 -3.332016835610766 L 0.2545238195009303 -3.27054088025743 C 0.24413304661240431 -3.2386001121499355 0.23347498696147273 -3.206625933197141 0.22308421407294698 -3.1746517542443464 C 0.20260336590360195 -3.110736807184058 0.17828027052467355 -3.0478910071733925 0.16271081661453546 -2.981737533477955 C 0.14778877781535105 -2.936159665858731 0.15655923492032553 -2.886143001911506 0.18609840832504343 -2.8483614390374568 C 0.2123397138264389 -2.815430503693993 0.2268063044075419 -2.7746652980402504 0.22719374804493642 -2.732559449225141 C 0.22719374804493642 -2.719596041248459 0.24389917069529932 -2.708035888774408 0.252619401318789 -2.695807519394343 C 0.25178267500566487 -2.685801727971393 0.25178267500566487 -2.675743550046638 0.252619401318789 -2.6657377586236892 C 0.2424176328946075 -2.658695603101594 0.2346264721673681 -2.6486883936645107 0.23030095665790373 -2.637071253355666 C 0.2259564621027672 -2.6254274580385366 0.22525728773431264 -2.6127374432510866 0.2282963059398604 -2.6006868428231753 L 0.20260336590360195 -2.5455923589222786 C 0.24135690227699214 -2.4722200907891203 0.2911139480825016 -2.405212583677398 0.35014565875160697 -2.3468980619188624 C 0.3878330922508266 -2.275231798748804 0.44850718731694483 -2.215727083268211 0.4501443187366805 -2.12638648293407 C 0.4501443187366805 -2.1026981936158555 0.485927334053758 -2.079811764584858 0.5047710508033674 -2.0566914596367556 C 0.5140592657969694 -2.0442626251848854 0.5208750782383174 -2.0266216988661023 0.5321011222593612 -2.020307049104266 C 0.5776014354308736 -1.9939909216566596 0.6132826274514056 -1.9535592750771809 0.6337369136641695 -1.9051398653526639 L 0.5850907229063125 -1.8712278573724266 L 0.5386496479383034 -1.8370485626297839 C 0.5200596738789232 -1.8111564453673563 0.4877858104266046 -1.798894219220776 0.45669284441562286 -1.8059096548095068 C 0.41525103069641367 -1.8069650301496663 0.37481228514030107 -1.7930782937724787 0.34276186194014735 -1.7667855549623566 C 0.30650009105896237 -1.7386455111533379 0.2724339049993274 -1.7077848973557082 0.24085878377293235 -1.6744713893964502 C 0.2306913543384359 -1.657063216909188 0.22389083705636992 -1.6378970923692315 0.2208122765924978 -1.6179736499929231 C 0.1872009662199674 -1.6149332630705575 0.14894554835063611 -1.6234864394675435 0.12903268455140382 -1.5835270684878742 C 0.11179268837622902 -1.5388901791661045 0.11837462490047201 -1.5096891003732704 0.1582337633442379 -1.4565658563451156 C 0.16945980736528177 -1.4256942352872448 0.18065244054102525 -1.3948226142293745 0.19211236047917413 -1.3636837064090983 C 0.219442431935168 -1.3138013143751142 0.28900381185127944 -1.3300723960365675 0.3186058207877225 -1.281025275135102 C 0.34820782972416575 -1.2319781542336359 0.41215618762975503 -1.2430037331828756 0.46895462464098925 -1.215172499047371 C 0.4632079592492644 -1.1324806569280743 0.5268556195471472 -1.1071218253448234 0.592975682397284 -1.0840015203967206 C 0.6203057538532777 -1.0743457861048107 0.6476024144639709 -1.1054846939250873 0.6430919503483727 -1.141301120087466 C 0.6406182807931884 -1.1514920459760578 0.63704462188904 -1.1613840234442807 0.6324338906974412 -1.170802896488007 C 0.6849663254196973 -1.227031083309425 0.7190035339426806 -1.2980089826857184 0.7299601481302601 -1.374174711833525 C 0.7323991398372133 -1.391815638152309 0.7490711516422754 -1.4077860222060563 0.7589273510059896 -1.4245916773923213 C 0.7701199841817329 -1.414935943100411 0.7802100594625522 -1.3970277300192215 0.7923381963067156 -1.3970277300192215 C 0.8704861634651135 -1.3860021510699827 0.8898978645848354 -1.335317898748781 0.884685772717922 -1.2658567513685717 L 0.7305949541909741 -1.1556009618761767 C 0.7636716910386927 -1.125831898713229 0.7890639334672446 -1.102978880527533 0.8125517577136548 -1.0809277226290543 C 0.8386708003103657 -1.1002070095462297 0.8660633255279782 -1.1176984875478593 0.8945419720816367 -1.1332825172152914 C 0.9279528173823622 -1.1484510409818203 0.9600940505616606 -1.0974660910529126 0.9988840419558035 -1.1286049988731897 C 1.0022251264858761 -1.1410004224797587 1.006267838767264 -1.1561355354009875 1.0100766751315466 -1.1704687880349995 C 1.0328094529029066 -1.1805251524422116 1.0565245482112828 -1.1881950487057806 1.0808408454784844 -1.1933552170659958 C 1.1037940962000827 -1.1958276196182505 1.1283844783414172 -1.1657912696928978 1.1507697446929037 -1.188677698723895 C 1.1780998161488974 -1.2162416460969943 1.158153541504364 -1.243772182624792 1.1507697446929037 -1.2738085325501447 C 1.1487653019260735 -1.2880717070429952 1.1487653019260735 -1.3025451159593286 1.1507697446929037 -1.3168082904521792 L 1.1977788040310249 -1.328669140533937 C 1.2130809711787574 -1.2763143459477 1.2130809711787574 -1.2763143459477 1.246391583943581 -1.2985993797632838 L 1.2939352168065144 -1.32973828758356 C 1.2935167543456556 -1.3145497078389456 1.290848274697285 -1.2995071390194401 1.2860168464702424 -1.2851013982617907 C 1.26682867920788 -1.2544749156845616 1.26619825459275 -1.2157359663752607 1.2843797150505067 -1.1845013430613047 C 1.2894823808393756 -1.170174220778252 1.2920708264797538 -1.1550730706666998 1.2920307986243729 -1.1398644537395355 C 1.2794146586371387 -1.1405329775801816 1.2667995820429347 -1.1385291386987921 1.2550115820311685 -1.133984144966607 C 1.2432035326796766 -1.129418131660357 1.232482462385248 -1.1224300879652622 1.2235385657578848 -1.1134698859519614 C 1.2053304984676965 -1.0952630577166271 1.1956285408252427 -1.0702320069990967 1.196809889517304 -1.044509901251263 C 1.1539437749964727 -1.027971532827403 1.1102089784978224 -1.0128030090608733 1.0678774375018025 -0.9940929356924677 C 1.0255458965057829 -0.9753828623240608 0.9676449015996249 -0.9813968144781917 0.9419185507180659 -0.9272712450910157 C 0.9665089328594001 -0.9154103950092582 0.9965786936300536 -0.9096303187722325 1.010778302882862 -0.8917221056910436 C 1.0301014004464122 -0.8634067337549434 1.0461414478497613 -0.8329855676803879 1.0585892225082012 -0.8010450715448738 C 1.085150627217605 -0.8052739941504954 1.1122138465205393 -0.8052739941504954 1.1387752512299434 -0.8010450715448738 C 1.1785734934443413 -0.7851042345032533 1.2241023679783916 -0.7961744736693586 1.2521382493353062 -0.8286090189179718 C 1.2764613447142348 -0.8509274635788571 1.3005171533307573 -0.8302461503377079 1.3245395511019793 -0.823931500575871 L 1.4455870436265092 -0.7927925927555943 C 1.4851788953078695 -0.8161801844661025 1.524269584309719 -0.840436458154429 1.564128722753485 -0.8629553678871194 C 1.5857771471555278 -0.8784131276386669 1.6139271173418062 -0.8814409597154089 1.6383676210116975 -0.8709405599139917 C 1.721694269191708 -0.8312484756967304 1.774984567446366 -0.8709405599139926 1.8165142481551684 -0.9406689940566073 C 1.8189532398621213 -0.9447785280285963 1.824967192016252 -0.9467163570560388 1.829344012750647 -0.949456046370698 C 1.8405523570184148 -0.942882916141166 1.849473687180909 -0.9330286364191949 1.8549033094057026 -0.921223882091585 C 1.860375373224263 -0.9093946720163171 1.862134344031555 -0.8961849177416896 1.8599483470461122 -0.8833359835205621 C 1.8574759444938584 -0.854134904727728 1.8542016816543874 -0.8249004150895924 1.8514619923397277 -0.7973698785617938 C 1.9091291113287807 -0.7656629863714048 1.9634885566330618 -0.7383997366060133 2.018950559832267 -0.7493919047099511 C 2.103914339432013 -0.7660973273603142 2.1860047863358965 -0.7970691809540873 2.2697323646595153 -0.8218934390125261 C 2.2732618024515645 -0.7924572436725521 2.2694155047013655 -0.7626053805366788 2.258539731483773 -0.7350252412306393 C 2.247757776784138 -0.7073710756925737 2.2301899204413256 -0.6828748888234606 2.207454549018962 -0.6637933190494909 C 2.1497874300299094 -0.6170181356284754 2.070837602584294 -0.6260390638596722 2.0077245158112227 -0.5937975981444712 C 2.002813121552016 -0.5552080718221326 1.9981690140552149 -0.5202937384828745 1.9935249065584142 -0.4835418086520753 C 2.0101407782264467 -0.469614495743627 2.028477601253441 -0.457880276476506 2.0480848169344994 -0.4486274753128159 C 2.06721788191998 -0.44049397196862383 2.0887407825786286 -0.440003728120288 2.1082243384758064 -0.44725763065548785 C 2.175413548375566 -0.48942211742500374 2.2376913640161193 -0.4530377068925131 2.301639721921709 -0.4411768568107557 C 2.305499237450324 -0.3913171622922009 2.3301956027828368 -0.3453935674253579 2.3696642029539867 -0.31468339650220756 L 2.4871367350313394 -0.31468339650220756 C 2.5649840045820307 -0.31662122552964966 2.6403922824257693 -0.31304626508247146 2.710354592485489 -0.26977922041803204 C 2.756874042286443 -0.24595690466806275 2.8113799500244396 -0.24324377577842515 2.860035179432741 -0.26232860191596963 C 2.8939137765676772 -0.27235185550618723 2.9297302027300556 -0.276394567787575 2.964677946914615 -0.2830099151571188 C 2.9794455405375357 -0.2879547202616264 2.996384839105004 -0.30008285710578964 3.0089473169380776 -0.29637425327740985 C 3.061669630822623 -0.2814730162732859 3.108678690160744 -0.29831208230485107 3.159763872625554 -0.30876967688397894 C 3.2304946321271912 -0.323370216280396 3.298519113159469 -0.35888594483506786 3.3742280886109137 -0.3455216067147777 C 3.389530255758646 -0.31799107018697903 3.397615680321422 -0.2868187515214018 3.428854820677601 -0.2708483674676545 L 3.5531765760416016 -0.29483735439357517 C 3.555297869332641 -0.324331938641393 3.5662927678452476 -0.35249471894169115 3.584716414005488 -0.3756247783307307 C 3.6030445828475854 -0.3986639346847731 3.62796418623942 -0.415564507611883 3.656148801258439 -0.42407050401678337 C 3.7124460755901625 -0.44308127499289585 3.752037927271523 -0.5114398644781817 3.8232030277620694 -0.48250607244775257 C 3.8627948794434293 -0.5100366089755513 3.869978211183086 -0.5687394641689258 3.925907966216501 -0.5793975238198583 C 3.935368741067249 -0.568700599170366 3.9463167529156653 -0.5594178553112252 3.9584167186941075 -0.5518335764467595 C 4.013076861606095 -0.524269629073661 4.047757319028248 -0.5380683081828601 4.067703593672781 -0.5934634896914641 C 4.072614987931988 -0.608331315850287 4.071245143274658 -0.628177357958918 4.08053335826826 -0.6377996814055278 C 4.096356442322705 -0.6502607910921561 4.113829289664659 -0.6604701510577247 4.132453811865588 -0.6681367289385851 C 4.169205741696387 -0.6783270367553076 4.206759531814403 -0.6871474999146989 4.241740686844263 -0.6995429235212685 C 4.258717259410058 -0.7071301938289598 4.2749097483517975 -0.7163622625068689 4.290086179994414 -0.7271068708943673 C 4.344376745054208 -0.7222083278459452 4.398873720963968 -0.7339303628609586 4.446348703465907 -0.7607181812668964 C 4.540600698059256 -0.7552053917922779 4.627201609078738 -0.7882821286399961 4.714370504468332 -0.8158460760130954 C 4.731830158518442 -0.8206726880756983 4.748022951883351 -0.8292594299093436 4.761813904795361 -0.8410044425245418 C 4.775637852380365 -0.8527969207082498 4.7867597069303836 -0.8674285408334783 4.794422889808871 -0.8839039678906735 C 4.804245678327284 -0.8855410993104091 4.814469396989306 -0.8866436572053327 4.8247265264966295 -0.8874789283378512 C 4.891548217098081 -0.8759187758637998 4.950952700042771 -0.9100646597611415 5.01433307357825 -0.9194531072906456 C 5.099313800306725 -0.9126772107117027 5.184779871462289 -0.9234585594083726 5.265415576013203 -0.9511265886357343 L 5.3594002838441455 -0.9511265886357343 C 5.428618314354786 -0.9438679222024016 5.495792922974946 -0.9772794449237301 5.5317668347505915 -1.0368588176773974 C 5.553265991512886 -1.0626293591817655 5.5777493766992565 -1.0857556717123633 5.604702710042075 -1.1057519806874945 L 5.667281223290335 -0.9921551066650256 C 5.677739479933833 -0.9890171019463909 5.688603858424089 -0.9874409226835557 5.699522689005535 -0.9874775883229248 C 5.767279883275407 -0.9982358805097582 5.789731971317495 -1.0729091197568805 5.849503973560495 -1.092755161865512 C 5.8901478173817265 -1.0988479727886449 5.930450302007886 -1.1070333695002104 5.970250768477321 -1.1172787223162457 C 6.005499210269583 -1.1258318987132303 6.040413543608842 -1.1351869353974338 6.075428109484003 -1.1448426696893432 C 6.1175315083243 -1.1503548784943471 6.154581015096344 -1.175372270136946 6.175426769469076 -1.21236598804211 C 6.166973825607992 -1.2572701641262864 6.156048479194654 -1.3025752703540707 6.150301813802929 -1.3501523140623046 C 6.142070822816744 -1.3821011197032864 6.155721833647382 -1.4156722934557657 6.18391312417546 -1.4328107453363002 C 6.2016542830301455 -1.441363921733286 6.228416370116026 -1.4452061689428692 6.235532880165081 -1.45900484805207 C 6.250715578926318 -1.4946741529772791 6.262875325102437 -1.5315557360482246 6.27188387985227 -1.569260637544466 L 6.1625970048735965 -1.6602049584530407 L 6.215319318758142 -1.7152994423539383 C 6.225142107276556 -1.7172372713813804 6.242649390214136 -1.7152994423539383 6.244019234871466 -1.7219816114140838 C 6.266671787985358 -1.7828895823973068 6.287186047000004 -1.8443321269053419 6.308468755456567 -1.9060753690210834 C 6.326030127305461 -1.8969600265817075 6.344311874824985 -1.8893053829075788 6.363128898368555 -1.8831889399900863 C 6.405460439364573 -1.8727313454109593 6.428680976848577 -1.893212193580304 6.430318108268314 -1.9383168347362845 C 6.4330856161530585 -1.9636458661737777 6.422805526811505 -1.9886477480852438 6.40302144765762 -2.0047041843488262 C 6.40302144765762 -2.081315252623391 6.40302144765762 -2.081315252623391 6.462292287221108 -2.0997914500746924 L 6.580600090430979 -2.0907037001528948 C 6.5946901636740645 -2.1261024457280375 6.606814488768642 -2.1622523423531788 6.616917679272866 -2.198988249772549 C 6.61837441550548 -2.2058501063043487 6.61837441550548 -2.2129413498630983 6.616917679272866 -2.2198032063949 C 6.615476014113601 -2.2266533614602126 6.612644562928292 -2.2331349967036913 6.608598378792986 -2.238847388216314 C 6.604526024905427 -2.2445175992833137 6.5993139574663 -2.2492744643260107 6.593296211645255 -2.2528131215520175 C 6.587413057804615 -2.2564303350625603 6.580832319921528 -2.258764333792721 6.573984743061437 -2.259662344838666 Z" fill="#bd2949" transform="matrix(1,0,0,1,0,0)" fill-rule="nonzero"></path><path d=" M 6.64638604482811 -1.9906716293225215 C 6.640273916324089 -1.9918710989592818 6.63396999310589 -1.9916769563964025 6.6279432582221105 -1.9901036449524092 C 6.615704326405604 -1.986867426926692 6.605584911280259 -1.9782708364075874 6.600412721694311 -1.966716053241901 C 6.59781104017617 -1.961005339597524 6.596531917160352 -1.9547810356366164 6.59667070702063 -1.9485071425530052 C 6.595457009810973 -1.9383083031497614 6.59848105643058 -1.9280581639973335 6.605036365413511 -1.9201513751277486 C 6.611591674396442 -1.9122445862581632 6.621104037358552 -1.9073737381309104 6.631351164442783 -1.9066767642364972 C 6.643740371271264 -1.9041831493942403 6.656590897862459 -1.9074664896811764 6.6662654977820415 -1.9155974599317904 C 6.675975705431174 -1.9237765186768128 6.681505935028736 -1.935879260612054 6.68133378901267 -1.9485739642436068 C 6.682044146613753 -1.9587767369522826 6.678802111382564 -1.9688617395349084 6.672279449936173 -1.976739306832119 C 6.665781349585066 -1.9845651878437196 6.656497200395703 -1.9895606590849635 6.646386044828111 -1.9906716293225215 Z" fill="#bd2949" transform="matrix(1,0,0,1,0,0)" fill-rule="nonzero"></path><path d=" M 6.621494965079068 -2.4183972708624153 C 6.625871785813464 -2.4183972708624153 6.6351600008070655 -2.433532383783644 6.63352286938733 -2.4376753286009336 C 6.630807571052647 -2.4474865785112887 6.624402379708632 -2.455867202699718 6.615648067151442 -2.4610629203114422 C 6.606965342618869 -2.4662009156663984 6.596620170921407 -2.4677472970672945 6.586814507656916 -2.465372919355236 C 6.5838075315798505 -2.4614972613003516 6.57779357942572 -2.45681974295825 6.578595439712936 -2.4537793560358843 C 6.580019363567031 -2.4435587252509805 6.585230328495049 -2.4342457650478195 6.593195979109354 -2.427685485856017 C 6.60110149459273 -2.4210977747749904 6.611223222338657 -2.4177756492574374 6.621494965079068 -2.4183972708624157 Z" fill="#bd2949" transform="matrix(1,0,0,1,0,0)" fill-rule="nonzero"></path></g></g></g><defs><clipPath id="SvgjsClipPath1014"><path d="M0,-5.281172139609816v5.031172139609816h6.681434021548571v-5.031172139609816ZM4.765903576804858 -2.610195432137968L3.9562365700139623 -2.610195432137968L3.9562365700139623 -2.442537112549954L4.414230028400731 -2.442537112549954L4.414230028400731 -1.7023869699784795C4.29155320918999 -1.6233285753760014,4.166150238441231 -1.5647163173086471,4.038021116154457 -1.5265501957764163C3.909891993867682 -1.4883840742441856,3.7640428865838005 -1.4693010134780702,3.6004737943028116 -1.4693010134780702C3.3851078227995095 -1.4693010134780702,3.1970033666763724 -1.502014831934268,3.0361604259334 -1.5674424688466635C2.8753174851904273 -1.632870105759059,2.7417360598276197 -1.723514644398107,2.635416149844977 -1.8393760847638077C2.5290962398623344 -1.9552375251295082,2.449356307375352 -2.0929081777993406,2.396196352384031 -2.2523880427733047C2.3430363973927095 -2.4118679077472684,2.3164564198970488 -2.587023144064828,2.3164564198970488 -2.7778537517259814C2.3164564198970488 -2.965958207849119,2.341673321623701 -3.139068830513165,2.392107125077006 -3.297185619718121C2.442540928530311 -3.455302408923077,2.5181916337102686 -3.5916099858239012,2.6190592406168784 -3.7061083504205934C2.719926847523488 -3.8206067150172855,2.843285204618734 -3.909206640002821,2.9891343119026157 -3.9719081253772C3.134983419186497 -4.03460961075158,3.3046863524280234 -4.0659603534387685,3.4982431116271933 -4.0659603534387685C3.626372233913968 -4.0659603534387685,3.7463229015866935 -4.052329595748686,3.8580951146453693 -4.025068080368522C3.969867327704045 -3.997806564988357,4.069371858841646 -3.9623665949941427,4.156608708058174 -3.918748170385879C4.243845557274701 -3.8751297457776155,4.315407035147635 -3.8253774802088145,4.371293141676972 -3.7694913736794766C4.4271792482063095 -3.7136052671501387,4.463300756085028 -3.6570376227362966,4.479657665313127 -3.5997884404379508L4.7740820314189065 -3.5997884404379508C4.749546667576759 -3.659763774274313,4.707972856622007 -3.727236024840221,4.649360598554653 -3.8022051921356743C4.590748340487298 -3.8771743594311276,4.5110084080003165 -3.947372761535052,4.410140801093707 -4.012800398447448C4.309273194187097 -4.078228035359843,4.184551761322843 -4.1334326040046765,4.035976502500945 -4.1784141043819485C3.887401243679046 -4.2233956047592205,3.7122460073614874 -4.2458863549478565,3.510510793548268 -4.2458863549478565C3.278787912816867 -4.2458863549478565,3.0654665549670774 -4.213172536491658,2.8705467199988988 -4.147744899579264C2.67562688503072 -4.082317262666868,2.5072870275582027 -3.9882650346052992,2.3655271475813455 -3.8655882153945575C2.2237672676044884 -3.742911396183816,2.113358130314821 -3.592291523708405,2.034299735712343 -3.413728597968326C1.9552413411098648 -3.2351656722282462,1.915712143808626 -3.0327489205305227,1.915712143808626 -2.8064783428751543C1.915712143808626 -2.6129215836759845,1.9463813486113113 -2.425498665437351,2.007719758216682 -2.244209588159255C2.069058167822053 -2.0629205108811592,2.1631103958836215 -1.9007144943691785,2.289876442401388 -1.7575915386233132C2.4166424889191545 -1.6144685828774479,2.5781669675466308 -1.4999702182807557,2.774449878283818 -1.4140964448332365C2.970732789021004 -1.3282226713857173,3.205181821290422 -1.2852857846619576,3.47779697509207 -1.2852857846619576C3.682258340443306 -1.2852857846619576,3.8635474177214024 -1.3077765348505936,4.021664206926358 -1.3527580352278656C4.1797809961313135 -1.3977395356051376,4.310636269956104 -1.4474918011739384,4.414230028400731 -1.502014831934268L4.414230028400731 -1.3343565123462544L4.765903576804858 -1.3343565123462544L4.765903576804858 -2.610195432137968Z"></path></clipPath><clipPath id="SvgjsClipPath1015"><path d=" M 0 -5.281172139609816 h 6.681434021548571 v 5.031172139609816 h -6.681434021548571 Z"></path></clipPath></defs></svg>